<?xml version="1.0" standalone="no"?>
<!DOCTYPE svg PUBLIC "-//W3C//DTD SVG 20010904//EN"
 "http://www.w3.org/TR/2001/REC-SVG-20010904/DTD/svg10.dtd">
<svg version="1.0" xmlns="http://www.w3.org/2000/svg"
 width="417.000000pt" height="626.000000pt" viewBox="0 0 417.000000 626.000000"
 preserveAspectRatio="xMidYMid meet">

<g transform="translate(0.000000,626.000000) scale(0.100000,-0.100000)"
fill="#000000" stroke="none">
<path d="M227 6253 c-11 -11 -8 -58 6 -75 6 -9 33 -18 60 -21 44 -4 49 -3 62
24 8 15 15 39 15 54 0 24 -2 25 -68 25 -38 0 -72 -3 -75 -7z"/>
<path d="M1935 6243 c4 -10 15 -41 26 -69 10 -27 28 -60 39 -72 11 -12 20 -28
20 -36 0 -7 7 -17 16 -20 10 -4 19 4 29 27 7 17 25 61 40 97 15 36 29 71 32
78 4 9 -20 12 -102 12 -98 0 -107 -1 -100 -17z"/>
<path d="M2644 6193 c8 -80 14 -103 26 -103 11 0 29 59 37 123 l6 47 -38 0
-37 0 6 -67z"/>
<path d="M3380 6238 c0 -13 4 -29 9 -37 7 -10 12 -8 25 10 23 33 20 49 -9 49
-19 0 -25 -5 -25 -22z"/>
<path d="M0 5981 c0 -14 5 -19 15 -14 17 6 15 25 -3 31 -7 2 -12 -5 -12 -17z"/>
<path d="M2375 5753 c-58 -4 -134 -22 -153 -36 -7 -5 -15 -7 -19 -4 -3 4 -11
0 -17 -8 -6 -8 -30 -16 -53 -19 -75 -9 -122 -43 -200 -146 -81 -108 -140 -285
-129 -390 3 -30 7 -253 9 -495 4 -412 3 -445 -15 -515 -11 -41 -26 -102 -34
-134 -8 -33 -19 -65 -24 -72 -6 -6 -8 -19 -4 -28 3 -9 2 -16 -4 -16 -5 0 -12
-19 -16 -42 -7 -46 -59 -213 -83 -266 -8 -18 -12 -36 -8 -41 3 -5 0 -11 -5
-13 -16 -5 -127 -342 -140 -423 -8 -48 -9 -171 -5 -395 6 -244 4 -345 -5 -403
-7 -43 -16 -73 -20 -67 -5 8 -15 2 -30 -17 -19 -24 -21 -35 -15 -78 10 -67 10
-79 0 -235 -12 -171 -9 -401 5 -516 9 -74 18 -102 54 -169 24 -44 46 -89 49
-100 4 -11 4 -6 1 10 -2 17 -7 80 -11 140 l-6 110 24 -20 c13 -12 38 -22 54
-23 17 -1 23 1 15 5 -20 9 -44 33 -32 33 6 0 8 9 5 20 -3 11 -12 20 -20 20 -8
0 -23 19 -33 43 -17 37 -20 65 -19 237 0 107 3 202 7 210 11 23 32 23 32 -1 0
-11 -3 -18 -8 -16 -4 3 -5 -20 -2 -51 3 -32 1 -91 -3 -132 -10 -94 -3 -137 8
-52 4 34 10 61 12 58 3 -2 5 -41 5 -85 0 -44 4 -84 10 -87 6 -4 9 27 8 87 -2
52 2 107 9 122 6 16 11 42 11 58 0 17 6 32 15 35 9 4 15 19 15 38 0 18 3 36 8
40 4 4 12 40 17 79 l10 72 28 -27 c37 -37 43 -35 19 5 -11 17 -22 44 -26 59
-5 23 -4 25 17 20 21 -5 21 -5 5 11 -10 10 -15 29 -14 45 2 15 1 32 -2 37 -4
6 -7 37 -8 70 -5 137 -15 288 -20 296 -3 5 -2 9 3 9 4 0 8 44 9 98 0 67 6 109
17 136 10 23 17 65 17 102 0 48 3 64 14 64 10 0 16 19 21 63 7 66 28 152 50
202 7 17 18 53 25 80 21 86 42 136 56 131 8 -3 12 6 11 27 0 18 9 52 20 77 11
25 26 63 32 85 7 22 24 62 38 89 l26 50 -21 14 c-22 15 -22 16 21 63 9 10 17
23 17 28 0 5 27 12 60 16 33 4 60 11 60 16 0 5 12 17 28 27 15 9 27 22 28 27
0 12 21 64 34 87 6 10 10 24 10 33 0 12 5 13 26 4 29 -11 64 -4 64 13 0 12 59
68 72 68 16 0 48 -41 49 -63 1 -12 -11 -49 -25 -82 -14 -33 -28 -76 -32 -95
-16 -92 -90 -323 -130 -409 -66 -140 -78 -190 -70 -284 6 -73 27 -175 41 -197
3 -5 8 -26 10 -47 3 -21 12 -72 20 -113 8 -41 17 -96 20 -122 4 -26 9 -47 13
-47 19 3 33 -2 28 -10 -7 -12 22 -83 32 -77 4 2 7 -28 6 -67 -1 -75 -14 -118
-72 -229 -41 -80 -61 -182 -36 -192 8 -3 14 -18 15 -33 0 -15 6 -46 13 -68 10
-33 10 -46 -1 -74 -8 -18 -12 -35 -10 -38 3 -2 10 11 16 29 l12 33 29 -50 c16
-28 45 -67 64 -88 39 -43 66 -120 66 -194 1 -39 3 -45 11 -29 7 11 9 43 5 85
-6 55 -4 63 6 51 8 -8 22 -20 33 -26 13 -8 20 -22 20 -42 0 -17 6 -37 13 -43
19 -20 15 -33 -28 -116 -22 -43 -40 -83 -40 -90 0 -19 -40 -92 -55 -101 -18
-10 -55 -97 -55 -129 0 -27 -64 -187 -85 -213 -7 -8 -25 -44 -41 -80 -16 -36
-34 -71 -41 -78 -7 -7 -13 -20 -13 -27 0 -14 -44 -85 -59 -95 -10 -6 -31 -46
-31 -57 0 -4 5 -1 10 7 8 13 10 12 10 -2 0 -10 -5 -18 -11 -18 -6 0 -24 -11
-40 -24 -15 -13 -47 -27 -70 -31 -23 -4 -63 -18 -89 -31 -27 -13 -53 -24 -58
-24 -6 0 -23 -10 -39 -23 -15 -12 -40 -29 -55 -36 -26 -14 -46 -69 -32 -92 3
-6 -2 -17 -12 -24 -13 -10 -15 -14 -5 -15 19 0 -6 -29 -36 -41 -31 -12 -194
13 -224 34 -13 10 -34 17 -47 17 -12 0 -25 7 -28 15 -5 11 -10 12 -24 3 -28
-18 -50 6 -50 52 0 30 -4 39 -21 43 -11 3 -23 16 -26 28 -6 21 -7 21 -21 3
-14 -18 -14 -18 -7 1 4 11 9 31 11 45 4 22 3 23 -5 5 -10 -20 -10 -20 -10 0
-1 12 -6 26 -13 33 -8 8 -9 12 -1 12 6 0 14 -6 16 -12 9 -21 6 256 -3 407 -5
77 -18 208 -29 290 -29 208 -52 532 -45 613 l7 69 -144 11 c-79 7 -207 14
-284 17 -77 3 -207 14 -290 26 -82 11 -167 23 -187 26 -22 3 -58 -2 -85 -11
-27 -8 -69 -18 -95 -21 l-48 -6 0 -381 0 -380 30 -28 c16 -15 32 -25 36 -21 4
3 4 0 0 -6 -8 -15 24 -74 36 -67 4 3 8 2 8 -3 -1 -25 -45 -53 -84 -53 l-26 0
0 -290 0 -291 58 7 c31 3 60 8 63 10 12 7 60 -47 57 -64 -3 -15 -15 -17 -91
-14 l-87 2 0 -230 0 -230 706 0 707 0 -7 87 c-3 49 -9 128 -13 177 l-6 89 28
-7 c16 -4 42 -16 57 -28 16 -11 47 -22 68 -25 39 -6 50 -16 30 -28 -5 -3 -10
-21 -9 -38 1 -31 1 -31 21 16 l20 47 67 0 c36 0 73 5 81 10 12 8 11 10 -6 10
-11 0 -29 9 -38 19 -25 27 -10 34 104 46 60 6 168 79 211 142 18 26 41 56 51
66 17 17 18 17 18 0 0 -35 21 5 56 108 47 138 99 244 143 288 50 50 88 113
170 279 38 79 76 150 83 159 7 8 17 24 23 34 5 10 31 54 57 96 25 43 56 99 69
125 12 26 26 45 30 42 8 -5 14 13 24 71 3 22 23 99 44 170 22 72 44 149 50
173 11 39 14 42 39 37 24 -5 25 -5 5 4 l-22 10 23 68 c30 89 53 169 61 215 6
32 11 37 31 36 13 -1 24 -7 24 -13 0 -5 5 -2 11 8 6 10 8 21 5 24 -3 4 -6 2
-6 -4 0 -6 -9 -9 -20 -6 -25 7 -25 23 0 75 11 23 18 44 15 46 -2 2 2 16 9 31
18 35 102 283 120 351 8 30 19 54 25 52 8 -1 9 3 2 15 -9 19 16 93 32 93 4 0
5 -6 1 -12 -4 -7 4 -2 18 12 30 28 30 37 0 21 -26 -14 -32 -14 -32 2 0 6 14
20 30 29 17 9 36 30 42 45 13 31 18 193 6 193 -12 0 -10 178 3 201 10 19 6 62
-20 219 l-8 45 -8 -40 c-4 -22 -16 -47 -27 -56 -19 -18 -41 -111 -52 -226 -4
-34 -10 -73 -15 -86 -9 -24 -34 -156 -46 -239 -3 -26 -10 -50 -15 -53 -5 -3
-14 -30 -20 -60 -6 -30 -16 -55 -21 -55 -6 0 -7 -4 -4 -10 3 -5 2 -10 -2 -10
-14 0 -33 -109 -33 -186 -1 -45 -6 -76 -15 -88 -8 -11 -15 -31 -15 -44 0 -14
-6 -30 -14 -36 -7 -6 -23 -48 -36 -93 -12 -46 -29 -88 -36 -94 -8 -6 -14 -17
-14 -23 0 -7 -13 -39 -30 -71 -17 -32 -30 -72 -30 -88 0 -17 -8 -36 -21 -45
-16 -14 -21 -33 -26 -97 -7 -99 -43 -182 -110 -255 -17 -19 -34 -48 -37 -63
-8 -43 -29 -87 -43 -87 -17 0 -91 38 -131 68 -42 30 -102 151 -102 204 0 48
16 88 34 88 19 0 51 57 35 62 -7 2 3 37 25 89 19 47 40 115 46 150 5 35 17 82
25 104 8 22 14 54 15 71 0 41 29 179 78 379 22 88 43 180 47 205 4 25 9 54 11
65 2 11 9 105 15 210 9 152 16 207 36 275 14 47 32 106 39 132 16 61 29 84 76
137 21 24 38 50 38 58 0 17 58 53 88 53 12 0 22 5 22 11 0 6 6 9 14 6 11 -5
13 0 6 25 -5 16 -14 36 -20 42 -7 10 5 43 44 122 66 133 84 177 96 230 17 73
-16 339 -72 579 -11 50 -21 94 -22 99 -1 11 14 13 155 20 l117 6 40 -33 c29
-23 42 -42 46 -67 3 -19 1 -177 -5 -350 -6 -173 -14 -472 -18 -665 -6 -334 -8
-353 -30 -413 l-23 -64 21 -109 c19 -93 20 -118 11 -171 -34 -195 -53 -272
-94 -375 -48 -124 -48 -129 12 -135 41 -4 54 -11 94 -52 42 -44 48 -47 69 -35
14 7 79 15 149 18 108 5 129 9 153 28 16 12 23 24 17 28 -34 21 22 45 108 45
85 0 110 -7 118 -33 10 -30 32 -50 49 -43 37 14 44 99 19 222 -12 59 -15 114
-12 224 6 162 -9 297 -42 379 -11 28 -17 51 -15 51 3 0 -1 14 -10 30 -9 17
-20 30 -25 30 -5 0 -17 14 -27 30 -26 45 -135 68 -176 38 -17 -14 -57 -117
-57 -150 0 -11 -11 -34 -25 -52 -43 -56 -25 -145 45 -230 40 -48 47 -65 52
-121 3 -26 -2 -32 -45 -52 -59 -28 -82 -24 -134 27 -32 30 -41 48 -46 85 -9
65 -8 142 2 188 7 28 4 55 -9 105 -16 58 -19 121 -24 472 -3 223 -7 423 -10
445 -4 22 -8 103 -10 180 -3 77 -9 167 -15 200 -15 81 -14 320 0 348 7 12 24
36 40 54 31 36 29 59 -6 85 -27 20 -55 14 -90 -19 -34 -32 -74 -42 -225 -58
-80 -9 -154 -18 -166 -19 -16 -3 -31 14 -75 86 -54 90 -127 167 -216 229 -47
33 -176 70 -232 67 -20 -1 -58 -3 -86 -5z m-149 -218 c8 -30 21 -59 29 -65 8
-6 47 -16 86 -21 91 -11 142 -36 205 -99 27 -27 58 -51 70 -54 20 -5 135 -126
120 -126 -4 0 0 -10 8 -22 8 -13 17 -48 21 -78 4 -30 14 -63 23 -73 14 -16 14
-20 -1 -46 -9 -16 -17 -49 -17 -73 0 -23 -3 -60 -6 -80 -5 -31 -11 -38 -29
-38 -12 0 -44 -10 -71 -22 -27 -12 -56 -21 -64 -19 -8 1 -45 18 -83 37 -49 26
-73 33 -90 28 -25 -9 -57 -6 -73 7 -6 5 -20 2 -34 -8 -13 -9 -43 -17 -68 -17
-53 -1 -66 -21 -25 -37 15 -6 42 -17 58 -23 38 -16 116 2 150 34 14 13 29 19
37 15 27 -16 48 -39 41 -44 -5 -3 -16 -18 -26 -33 -15 -25 -24 -28 -69 -28
-28 0 -91 -5 -139 -11 -115 -15 -134 -10 -137 36 -2 19 2 45 9 56 10 19 9 20
-13 14 -31 -10 -98 -76 -98 -97 0 -23 58 -62 95 -64 16 0 40 -4 52 -8 17 -6
20 -3 17 11 -4 16 3 19 58 21 35 2 70 5 80 8 9 3 19 0 23 -6 4 -6 16 -8 27 -4
15 4 19 2 16 -12 -1 -9 -12 -19 -23 -20 -57 -8 -76 -12 -82 -18 -9 -8 23 -7
77 4 47 9 80 -3 44 -16 -10 -4 -22 -12 -25 -17 -4 -5 -36 -11 -73 -14 -54 -5
-64 -8 -55 -19 14 -17 84 -18 143 -3 31 7 58 25 92 60 26 27 52 49 57 49 5 0
17 10 27 23 13 16 22 19 30 11 7 -8 4 -31 -14 -84 -14 -40 -29 -76 -33 -80 -4
-5 -38 -31 -74 -58 -83 -63 -171 -93 -236 -81 -103 20 -304 229 -320 334 -2
10 -11 30 -21 43 -33 45 -52 87 -52 112 1 24 1 24 14 -5 14 -30 14 -29 9 15
-6 45 9 49 20 5 3 -11 3 7 -1 40 -16 141 9 358 50 423 13 20 23 40 23 44 0 3
10 20 23 37 27 37 100 76 161 85 59 9 64 13 46 39 -8 12 -15 31 -15 44 0 12
-4 25 -10 28 -5 3 -10 13 -10 22 0 32 30 -9 46 -62z m754 -515 c0 -5 -9 -10
-21 -10 -11 0 -17 5 -14 10 3 6 13 10 21 10 8 0 14 -4 14 -10z m-1110 -49 c0
-12 -20 -25 -27 -18 -7 7 6 27 18 27 5 0 9 -4 9 -9z m-3 -108 c-3 -10 -5 -4
-5 12 0 17 2 24 5 18 2 -7 2 -21 0 -30z m1083 -37 c0 -2 -8 -10 -17 -17 -16
-13 -17 -12 -4 4 13 16 21 21 21 13z m18 -615 c3 -8 -1 -12 -9 -9 -7 2 -15 10
-17 17 -3 8 1 12 9 9 7 -2 15 -10 17 -17z m-727 -822 c-21 -60 -29 -100 -30
-152 -2 -51 -18 -19 -26 48 -5 49 -2 77 10 115 9 28 20 50 24 50 4 0 14 12 21
28 l14 27 4 -28 c2 -15 -6 -55 -17 -88z m-4 -91 c-3 -8 -6 -5 -6 6 -1 11 2 17
5 13 3 -3 4 -12 1 -19z m-550 -270 c-3 -7 -5 -2 -5 12 0 14 2 19 5 13 2 -7 2
-19 0 -25z m-207 -1756 c5 -20 10 -41 10 -47 -1 -17 -39 59 -40 78 0 29 18 9
30 -31z m-874 -29 c22 -9 42 -16 45 -15 11 2 17 -39 14 -83 -3 -46 -17 -52
-106 -50 -38 1 -68 9 -91 23 -31 19 -46 21 -119 17 -115 -6 -125 -3 -124 43
l0 37 70 -1 c39 -1 92 -2 119 -3 27 -1 52 2 55 7 9 13 64 41 82 42 9 0 34 -8
55 -17z m437 -260 c-13 -2 -35 -2 -50 0 -16 2 -5 4 22 4 28 0 40 -2 28 -4z
m-160 -95 c38 -10 47 -17 47 -35 0 -20 -5 -23 -40 -23 -33 0 -42 4 -49 23 -12
30 -30 44 -66 50 -16 3 -10 4 15 2 25 -2 66 -9 93 -17z m-82 -17 c34 -27 16
-38 -28 -17 -29 14 -34 20 -22 27 20 12 24 12 50 -10z m159 -12 c0 -11 -4 -17
-10 -14 -5 3 -10 13 -10 21 0 8 5 14 10 14 6 0 10 -9 10 -21z m-845 -117 c-8
-8 -25 10 -19 20 4 6 9 5 15 -3 4 -7 6 -15 4 -17z m60 18 c3 -5 -1 -10 -9 -10
-8 0 -18 5 -21 10 -3 6 1 10 9 10 8 0 18 -4 21 -10z m1928 -105 c-3 -9 -8 -14
-10 -11 -3 3 -2 9 2 15 9 16 15 13 8 -4z m-990 -138 c3 -8 -3 -14 -14 -14 -11
-1 -19 5 -19 13 0 18 26 19 33 1z m-763 -57 c59 -22 100 -25 115 -11 17 17 82
24 90 10 5 -8 4 -10 -3 -5 -7 4 -12 2 -12 -3 0 -6 5 -11 10 -11 6 0 10 -4 10
-10 0 -16 -188 -12 -243 5 -58 17 -69 24 -62 36 9 14 35 11 95 -11z m1420 -30
c0 -5 -7 -10 -16 -10 -8 0 -12 5 -9 10 3 6 10 10 16 10 5 0 9 -4 9 -10z"/>
<path d="M2437 5133 c-26 -9 -59 -27 -73 -40 -22 -20 -25 -30 -21 -60 8 -45
21 -60 40 -45 10 9 16 7 27 -8 8 -11 25 -20 38 -20 13 0 21 -4 18 -9 -9 -14
109 -25 131 -12 17 10 17 10 -2 11 -17 1 34 23 107 46 42 14 -7 100 -75 133
-52 25 -122 26 -190 4z m38 -153 c3 -5 1 -10 -4 -10 -6 0 -11 5 -11 10 0 6 2
10 4 10 3 0 8 -4 11 -10z"/>
<path d="M2057 5111 c-46 -7 -99 -42 -84 -58 4 -3 13 -1 19 5 17 17 103 15
118 -2 9 -12 5 -16 -27 -21 -68 -12 -93 -25 -93 -52 0 -14 7 -26 18 -29 9 -3
31 -12 47 -20 68 -32 89 -30 134 18 30 30 40 49 37 63 -3 11 -6 26 -6 32 0 14
-65 59 -95 66 -11 2 -41 1 -68 -2z m28 -159 c-8 -8 -25 10 -19 20 4 6 9 5 15
-3 4 -7 6 -15 4 -17z"/>
<path d="M880 4775 c-27 -9 -35 -17 -35 -36 0 -30 41 -37 87 -15 17 9 38 16
48 16 19 0 40 19 40 36 0 16 -93 16 -140 -1z"/>
<path d="M3176 3033 c-6 -14 -5 -15 5 -6 7 7 10 15 7 18 -3 3 -9 -2 -12 -12z"/>
<path d="M0 2875 c0 -42 4 -74 8 -71 5 3 17 23 27 46 21 46 13 92 -18 98 -15
3 -17 -6 -17 -73z"/>
<path d="M3146 2875 c-3 -8 -1 -15 4 -15 6 0 10 7 10 15 0 8 -2 15 -4 15 -2 0
-6 -7 -10 -15z"/>
<path d="M1691 2824 c0 -11 3 -14 6 -6 3 7 2 16 -1 19 -3 4 -6 -2 -5 -13z"/>
<path d="M1701 2784 c0 -11 3 -14 6 -6 3 7 2 16 -1 19 -3 4 -6 -2 -5 -13z"/>
<path d="M3090 2771 c0 -14 5 -19 15 -14 17 6 15 25 -3 31 -7 2 -12 -5 -12
-17z"/>
<path d="M2282 2700 c0 -14 2 -19 5 -12 2 6 2 18 0 25 -3 6 -5 1 -5 -13z"/>
<path d="M3045 2657 c-8 -31 0 -46 15 -31 7 7 7 19 1 35 l-9 24 -7 -28z"/>
<path d="M2980 2453 c0 -21 3 -24 9 -14 5 8 7 20 4 28 -8 21 -13 15 -13 -14z"/>
<path d="M3996 2384 c-9 -23 -8 -24 14 -24 11 0 20 2 20 4 0 12 -13 36 -20 36
-4 0 -11 -7 -14 -16z"/>
<path d="M2664 2312 c-14 -9 -84 -112 -84 -123 0 -35 103 29 115 72 3 10 8 28
11 39 4 15 1 20 -13 20 -10 0 -23 -4 -29 -8z"/>
<path d="M4100 2069 c-36 -4 -97 -15 -136 -24 -39 -9 -107 -15 -152 -14 -78 2
-84 1 -141 -34 -67 -42 -92 -44 -175 -17 -33 11 -78 20 -100 20 -23 0 -57 5
-76 10 -19 6 -66 15 -104 20 -65 10 -71 9 -112 -15 -24 -14 -44 -28 -44 -30 0
-2 9 -44 21 -92 46 -198 61 -302 69 -493 5 -110 19 -260 32 -345 22 -144 24
-150 45 -147 18 3 22 0 17 -15 -3 -10 -8 -25 -10 -33 -4 -11 -7 -12 -13 -2 -4
7 -5 -49 -3 -125 4 -119 -6 -382 -24 -651 l-6 -82 491 0 491 0 0 1040 c0 572
-1 1039 -2 1039 -2 -1 -32 -5 -68 -10z m-222 -111 c19 -19 15 -48 -8 -48 -16
0 -20 7 -20 30 0 32 9 37 28 18z m212 -963 c5 -3 7 -12 3 -20 -6 -18 -70 -20
-93 -4 -12 9 -10 10 8 6 13 -3 21 -3 18 0 -3 4 -1 12 5 19 10 12 38 12 59 -1z
m-240 -5 c0 -5 7 -10 15 -10 8 0 15 -3 15 -8 0 -10 -37 -42 -49 -42 -5 0 -21
-16 -35 -35 -15 -19 -34 -35 -42 -35 -7 0 -14 -4 -14 -10 0 -5 -24 -10 -52
-10 -42 0 -64 7 -106 33 -29 18 -49 37 -45 41 4 4 1 12 -7 17 -12 9 -12 10 3
5 9 -3 17 -1 17 4 0 17 37 29 73 23 20 -3 34 -9 31 -14 -9 -15 70 -9 90 6 11
8 16 15 10 15 -5 0 2 7 16 14 30 17 80 20 80 6z"/>
<path d="M1592 1795 c0 -16 2 -22 5 -12 2 9 2 23 0 30 -3 6 -5 -1 -5 -18z"/>
<path d="M1521 1524 c0 -11 3 -14 6 -6 3 7 2 16 -1 19 -3 4 -6 -2 -5 -13z"/>
<path d="M1542 1450 c0 -14 2 -19 5 -12 2 6 2 18 0 25 -3 6 -5 1 -5 -13z"/>
<path d="M1360 540 c0 -5 4 -11 10 -15 5 -3 7 -13 4 -23 -4 -11 2 -8 15 8 26
32 26 35 -4 38 -14 1 -25 -2 -25 -8z"/>
<path d="M1601 514 c0 -11 3 -14 6 -6 3 7 2 16 -1 19 -3 4 -6 -2 -5 -13z"/>
<path d="M1585 453 c-3 -16 -10 -41 -15 -56 -7 -24 -6 -28 8 -25 13 2 18 16
20 56 3 56 -4 69 -13 25z"/>
</g>
</svg>
